<svg viewBox="0 0 400 120" xmlns="http://www.w3.org/2000/svg">
    <defs>
        <linearGradient id="subtleGradient" x1="0%" y1="0%" x2="100%" y2="100%">
            <stop offset="0%" style="stop-color:#465B73;stop-opacity:1" />
            <stop offset="50%" style="stop-color:#6B8169;stop-opacity:1" />
            <stop offset="100%" style="stop-color:#465B73;stop-opacity:1" />
        </linearGradient>
        <linearGradient id="silverGradient" x1="0%" y1="0%" x2="100%" y2="100%">
            <stop offset="0%" style="stop-color:#E8E8E8;stop-opacity:0.9" />
            <stop offset="45%" style="stop-color:#C0C0C0;stop-opacity:0.9" />
            <stop offset="55%" style="stop-color:#D8D8D8;stop-opacity:0.9" />
            <stop offset="100%" style="stop-color:#E8E8E8;stop-opacity:0.9" />
        </linearGradient>
        <filter id="subtle-metallic" x="-20%" y="-20%" width="140%" height="140%">
            <feGaussianBlur in="SourceAlpha" stdDeviation="0.2" result="blur"/>
            <feSpecularLighting in="blur" surfaceScale="1.5" specularConstant=".6" specularExponent="20" lighting-color="#white" result="highlight">
                <fePointLight x="50" y="-50" z="180"/>
            </feSpecularLighting>
            <feComposite in="highlight" in2="SourceGraphic" operator="in" result="highlight"/>
            <feComposite in="SourceGraphic" in2="highlight" operator="arithmetic" k1="0" k2="1" k3="0.6" k4="0"/>
        </filter>
    </defs>
    
    <!-- Background -->
    <rect width="400" height="120" fill="#FFFFFF" />
    
    <!-- Logo mark group -->
    <g transform="translate(24,20)">
        <!-- Organic shapes -->
        <path d="M20,10 Q30,0 40,20 Q45,40 35,60 Q25,80 15,70 Q5,60 10,40 Q15,20 20,10" 
              fill="#234359" 
              filter="url(#subtle-metallic)"/>
        <path d="M40,40 Q50,10 70,20 Q90,30 80,50 Q70,70 50,60 Q30,50 40,40" 
              fill="url(#subtleGradient)" 
              filter="url(#subtle-metallic)"/>
        
        <!-- Refined gear -->
        <g transform="translate(42,40)">
            <path d="M0,-12 L3,-12 L4.5,-4.5 L12,-9 L13.5,-6 L7.5,0 L13.5,6 L12,9 L4.5,4.5 L3,12 L0,12 L-1.5,4.5 L-9,9 L-10.5,6 L-4.5,0 L-10.5,-6 L-9,-9 L-1.5,-4.5 Z" 
                  fill="url(#silverGradient)"
                  transform="rotate(45)"
                  filter="url(#subtle-metallic)"/>
            <circle cx="0" cy="0" r="2.75" fill="#23334A" opacity="0.85"/>
        </g>
    </g>
    
    <!-- Typography -->
    <text x="115" y="63" 
          font-family="'Gill Sans', 'Frutiger', sans-serif" 
          font-size="37" 
          font-weight="300" 
          letter-spacing="0.3" 
          fill="#213756">PebbleWorks</text>
    
    <!-- Tagline -->
    <text x="118" y="83" 
          font-family="'Gill Sans', 'Frutiger', sans-serif" 
          font-size="15" 
          font-weight="400" 
          letter-spacing="0.4">
        <tspan fill="#23334A">ai </tspan>
        <tspan fill="#23334A" font-weight="500">&amp;</tspan>
        <tspan fill="#23334A"> automation, </tspan>
        <tspan fill="#7B917A" font-weight="500">made human</tspan>
    </text>
    
    <!-- Decorative underline -->
    <path d="M229,86 C239,85.5 244,86.5 249,86 C254,85.5 259,86.5 264,86 C269,85.5 274,86.5 279,86 C284,85.5 289,86.5 310,86" 
          stroke="#7B917A" 
          stroke-width="1.2" 
          stroke-opacity="0.7" 
          fill="none"/>
</svg>
