<svg viewBox="0 0 500 100" xmlns="http://www.w3.org/2000/svg">
    <defs>
        <linearGradient id="blueGray" x1="0%" y1="0%" x2="100%" y2="100%">
            <stop offset="0%" style="stop-color:#405873;stop-opacity:1" />
            <stop offset="100%" style="stop-color:#546A89;stop-opacity:1" />
        </linearGradient>
        <linearGradient id="mossy" x1="0%" y1="0%" x2="100%" y2="100%">
            <stop offset="0%" style="stop-color:#758575;stop-opacity:1" />
            <stop offset="100%" style="stop-color:#7EB079;stop-opacity:1" />
        </linearGradient>
        <linearGradient id="sandstone" x1="0%" y1="0%" x2="100%" y2="100%">
            <stop offset="0%" style="stop-color:#C5B097;stop-opacity:1" />
            <stop offset="100%" style="stop-color:#D4C3AF;stop-opacity:1" />
        </linearGradient>
        <linearGradient id="slate" x1="0%" y1="0%" x2="100%" y2="100%">
            <stop offset="0%" style="stop-color:#6B7275;stop-opacity:1" />
            <stop offset="100%" style="stop-color:#828A8D;stop-opacity:1" />
        </linearGradient>
        <linearGradient id="terra" x1="0%" y1="0%" x2="100%" y2="100%">
            <stop offset="0%" style="stop-color:#A67F6D;stop-opacity:1" />
            <stop offset="100%" style="stop-color:#C49B88;stop-opacity:1" />
        </linearGradient>
        <filter id="stone-texture">
            <feTurbulence type="fractalNoise" baseFrequency="1.2" numOctaves="4" seed="5" result="noise"/>
            <feColorMatrix in="noise" type="saturate" values="0" result="grayscale"/>
            <feComposite in="SourceGraphic" in2="grayscale" operator="arithmetic" k1="1" k2="0.03" k3="0" k4="0"/>
        </filter>
    </defs>
    
    <!-- PebbleSpeak -->
    <g transform="translate(0,0)">
        <path d="M20,30 Q35,20 50,25 Q65,30 70,45 Q75,60 60,70 Q45,75 30,65 Q20,55 20,30" 
              fill="url(#blueGray)"
              filter="url(#stone-texture)"/>
        <path d="M32,40 Q45,35 58,40 Q63,45 58,55 Q45,60 32,55 Q27,45 32,40" 
              fill="white" opacity="0.9"/>
        <circle cx="42" cy="47" r="1.5" fill="#405873"/>
        <circle cx="45" cy="47" r="1.5" fill="#405873"/>
        <circle cx="48" cy="47" r="1.5" fill="#405873"/>
    </g>
    
    <!-- PebbleWrite -->
    <g transform="translate(100,0)">
        <path d="M20,30 Q35,20 50,25 Q65,30 70,45 Q75,60 60,70 Q45,75 30,65 Q20,55 20,30" 
              fill="url(#mossy)"
              filter="url(#stone-texture)"/>
        <path d="M35,35 h20 v25 h-20 z" fill="white" opacity="0.9"/>
        <path d="M38,42 h14 M38,48 h14 M38,54 h14" stroke="#7EB079" stroke-width="1.5"/>
    </g>
    
    <!-- PebbleSee -->
    <g transform="translate(200,0)">
        <path d="M20,30 Q35,20 50,25 Q65,30 70,45 Q75,60 60,70 Q45,75 30,65 Q20,55 20,30" 
              fill="url(#sandstone)"
              filter="url(#stone-texture)"/>
        <path d="M30,48 Q45,38 60,48 Q45,58 30,48" fill="white" opacity="0.9"/>
        <circle cx="45" cy="48" r="4" fill="#C5B097"/>
    </g>
    
    <!-- PebbleRun -->
    <g transform="translate(300,0)">
        <path d="M20,30 Q35,20 50,25 Q65,30 70,45 Q75,60 60,70 Q45,75 30,65 Q20,55 20,30" 
              fill="url(#slate)"
              filter="url(#stone-texture)"/>
        <path d="M30,47 h30 M55,42 l5,5 l-5,5" 
              stroke="white" stroke-width="3" fill="none" opacity="0.9"/>
    </g>
    
    <!-- PebbleThink -->
    <g transform="translate(400,0)">
        <path d="M20,30 Q35,20 50,25 Q65,30 70,45 Q75,60 60,70 Q45,75 30,65 Q20,55 20,30" 
              fill="url(#terra)"
              filter="url(#stone-texture)"/>
        <!-- Brain -->
        <g transform="translate(-2,2)">
            <path d="M45,35 Q50,30 55,35 Q60,30 65,35 Q70,40 65,45 Q70,50 65,55 Q60,60 55,55 Q50,60 45,55 Q40,50 45,45 Q40,40 45,35" 
                stroke="white" stroke-width="2" fill="none" opacity="0.9"/>
            <path d="M45,45 h20 M55,35 v20" 
                stroke="white" stroke-width="2" opacity="0.9"/>
        </g>
    </g>
</svg>
